<svg xmlns="http://www.w3.org/2000/svg" style="display:none">
  <!-- Нарисованные от руки элементы. Обводка 3px ink, круглые концы, без заливки.
       Все символы наследуют stroke/fill от <svg class="doodle">. -->
  <symbol id="arrow" viewBox="0 0 160 100">
    <path d="M6 70 C 40 20, 90 10, 150 36" />
    <path d="M128 18 L150 36 L124 48" />
  </symbol>
  <symbol id="arrow-down" viewBox="0 0 100 160">
    <path d="M30 6 C 90 40, 80 100, 50 150" />
    <path d="M26 128 L50 150 L68 126" />
  </symbol>
  <symbol id="arrow-loop" viewBox="0 0 160 120">
    <path d="M8 90 C 30 20, 90 10, 100 50 C 108 84, 60 92, 70 60 C 78 36, 120 30, 150 44" />
    <path d="M130 26 L150 44 L128 56" />
  </symbol>
  <symbol id="oval" viewBox="0 0 240 90">
    <path d="M120 10 C 40 6, 6 30, 10 48 C 14 70, 70 86, 140 82 C 200 78, 234 60, 230 42 C 226 22, 180 8, 110 12" />
  </symbol>
  <symbol id="star" viewBox="0 0 100 100">
    <path d="M50 6 L58 40 L94 50 L58 60 L50 94 L42 60 L6 50 L42 40 Z" />
  </symbol>
  <symbol id="star5" viewBox="0 0 100 100">
    <path d="M50 8 L61 38 L94 38 L67 57 L78 90 L50 70 L22 90 L33 57 L6 38 L39 38 Z" />
  </symbol>
  <symbol id="sparks" viewBox="0 0 100 100">
    <path d="M50 10 L50 34" /><path d="M18 30 L36 44" /><path d="M82 30 L64 44" />
  </symbol>
  <symbol id="squiggle" viewBox="0 0 200 40">
    <path d="M4 24 C 20 4, 36 4, 52 24 S 84 44, 100 24 S 132 4, 148 24 S 180 44, 196 24" />
  </symbol>
  <symbol id="underline" viewBox="0 0 200 30">
    <path d="M4 14 C 60 6, 130 6, 196 12" />
    <path d="M30 24 C 80 18, 140 18, 180 22" />
  </symbol>
  <symbol id="crown" viewBox="0 0 100 80">
    <path d="M10 66 L14 24 L36 44 L50 12 L64 44 L86 24 L90 66 Z" />
  </symbol>
  <symbol id="circle-scribble" viewBox="0 0 100 100">
    <path d="M52 12 C 20 10, 8 36, 14 58 C 20 84, 60 94, 82 76 C 100 60, 92 24, 64 18 C 40 12, 20 30, 24 52 C 28 74, 60 82, 76 66" />
  </symbol>
</svg>
